HIERARCHY
ROOT Hips
{
  OFFSET 0.382225 96.6805 0.598322
  CHANNELS 6 Xposition Yposition Zposition Zrotation Xrotation Yrotation
  JOINT Spine
  {
    OFFSET 10.8089 -0.851416 0
    CHANNELS 3 Zrotation Xrotation Yrotation
    JOINT Spine1
    {
      OFFSET 18.8753 3.80116 0
      CHANNELS 3 Zrotation Xrotation Yrotation
      JOINT Spine2
      {
        OFFSET 13.4073 0.420477 0
        CHANNELS 3 Zrotation Xrotation Yrotation
        JOINT LeftShoulder
        {
          OFFSET 11.8837 -2.73209 -3.78198
          CHANNELS 3 Zrotation Xrotation Yrotation
          JOINT LeftArm
          {
            OFFSET 15.7849 0 -2.35849e-005
            CHANNELS 3 Zrotation Xrotation Yrotation
            JOINT LeftForeArm
            {
              OFFSET 30.3399 0 0
              CHANNELS 3 Zrotation Xrotation Yrotation
              JOINT LeftHand
              {
                OFFSET 26.9751 0 2.45913e-005
                CHANNELS 3 Zrotation Xrotation Yrotation
                End Site
                {
                  OFFSET 8 0 0
                }
              }
            }
          }
        }
        JOINT RightShoulder
        {
          OFFSET 11.8838 -2.7321 3.782
          CHANNELS 3 Zrotation Xrotation Yrotation
          JOINT RightArm
          {
            OFFSET -15.7848 0 -1.07056e-005
            CHANNELS 3 Zrotation Xrotation Yrotation
            JOINT RightForeArm
            {
              OFFSET -30.34 1.02096e-005 -2.53607e-005
              CHANNELS 3 Zrotation Xrotation Yrotation
              JOINT RightHand
              {
                OFFSET -26.9752 2.07668e-005 0
                CHANNELS 3 Zrotation Xrotation Yrotation
                End Site
                {
                  OFFSET -8 0 0
                }
              }
            }
          }
        }
        JOINT Neck
        {
          OFFSET 16.5588 -0.355318 0
          CHANNELS 3 Zrotation Xrotation Yrotation
          JOINT Head
          {
            OFFSET 9.28361 0.364157 0
            CHANNELS 3 Zrotation Xrotation Yrotation
            End Site
            {
              OFFSET 0 0 0
            }
          }
        }
      }
    }
  }
  JOINT LeftUpLeg
  {
    OFFSET -1.44883 -0.531424 -9.00581
    CHANNELS 3 Zrotation Xrotation Yrotation
    JOINT LeftLeg
    {
      OFFSET -42.572 0.0788889 -0.011964
      CHANNELS 3 Zrotation Xrotation Yrotation
      JOINT LeftFoot
      {
        OFFSET -40.1967 0 0
        CHANNELS 3 Zrotation Xrotation Yrotation
				JOINT LeftToe
        {
          OFFSET -10.4538 -16.5779 0.0801563
          CHANNELS 3 Zrotation Xrotation Yrotation
          End Site
          {
            OFFSET -1.0 -1.0 0.0
          }
        }
      }
    }
  }
  JOINT RightUpLeg
  {
    OFFSET -1.44865 -0.531427 9.0058
    CHANNELS 3 Zrotation Xrotation Yrotation
    JOINT RightLeg
    {
      OFFSET 42.5723 -3.24776e-005 0
      CHANNELS 3 Zrotation Xrotation Yrotation
      JOINT RightFoot
      {
        OFFSET 40.1968 0 -1.14003e-005
        CHANNELS 3 Zrotation Xrotation Yrotation
				JOINT RightToe
        {
          OFFSET 10.4538 16.5778 -0.0801573
          CHANNELS 3 Zrotation Xrotation Yrotation
          End Site
          {
            OFFSET -1.0 -1.0 0.0
          }
        }
      }
    }
  }
}
MOTION
Frames:	20
Frame Time:	0.0333333
96.2598 97.2292 90.2613 -31.416 -81.8744 -123.682 -5.02147 -3.57105 3.42063 19.1941 -0.272221 -0.482736 2.7794 1.93418e-006 1.65929e-005 -0.0156453 17.507 71.0487 -18.7445 14.9759 9.64009 2.35071 -15.0673 8.78344 -57.0096 -67.2863 -52.1602 -177.211 9.67154 75.6167 -15.8022 -19.9292 11.6284 -4.5772 -6.80057 -0.213928 -3.11512 -56.3809 6.51231 -23.508 4.63459e-006 -5.90926e-006 8.68577 -25.8352 4.16387 3.88497 28.705 1.72506 -0.111953 -5.86046 2.65848 -0.700289 -5.5973 3.80715 -90 0 0 -169.238 11.8729 -3.65605 -7.55296 -5.7363 1.78818 5.56572 -3.55493 0.905368 -90 0 0
96.2502 97.2333 90.2083 -31.9265 -81.7878 -124.18 -4.98579 -3.50361 3.51007 19.1862 -0.27177 -0.482012 2.7794 1.93418e-006 1.65929e-005 -0.0435573 17.4989 71.1587 -18.7277 15.0854 9.71801 2.28955 -15.0673 8.75384 -56.9921 -67.3134 -52.1909 -177.191 9.59685 75.5422 -15.9361 -19.976 11.5669 -4.59466 -6.80192 -0.214782 -3.13651 -56.2805 6.54528 -23.508 4.63459e-006 -5.90926e-006 8.5688 -25.7543 3.84172 3.95297 28.7517 1.69119 -0.106761 -5.86252 2.66009 -0.705112 -5.54149 3.85979 -90 0 0 -169.151 11.7859 -3.62257 -7.57426 -5.73649 1.78439 5.5104 -3.56827 0.942746 -90 0 0
96.2251 97.2363 90.1771 -32.1104 -81.7713 -124.339 -4.98143 -3.48799 3.58408 19.2098 -0.272649 -0.484165 2.7794 1.93418e-006 1.65929e-005 -0.0647434 17.4601 71.2171 -18.7668 15.2056 9.81974 2.34673 -15.0659 8.78151 -56.9177 -67.2786 -52.0187 -177.18 9.51998 75.498 -15.9832 -20.0808 11.5382 -4.58614 -6.80244 -0.215109 -3.08104 -56.1453 6.63935 -23.508 4.63459e-006 -5.90926e-006 8.41469 -25.3677 3.57146 4.04201 28.8027 1.63003 -0.1948 -5.86362 2.65744 -0.681416 -5.54544 3.81142 -90 0 0 -169.148 11.8379 -3.59125 -7.53896 -5.73656 1.79022 5.4571 -3.63832 1.00135 -90 0 0
96.204 97.2437 90.1677 -32.277 -81.7886 -124.475 -4.98893 -3.47139 3.62646 19.2467 -0.274121 -0.48755 2.7794 1.93418e-006 1.65929e-005 -0.0804222 17.4021 71.2374 -18.7876 15.1967 9.93734 2.41228 -15.0645 8.81331 -56.2188 -67.0953 -51.3242 -177.168 9.45209 75.456 -16.0093 -20.1447 11.543 -4.56885 -6.80275 -0.215296 -3.08965 -56.0761 6.67802 -23.508 4.63459e-006 -5.90926e-006 8.24791 -24.7356 3.36441 3.99228 28.8262 1.60136 -0.107779 -5.86473 2.65267 -0.736168 -5.54906 3.85587 -90 0 0 -169.208 11.8824 -3.5415 -7.47898 -5.73665 1.79992 5.39372 -3.68664 0.978343 -90 0 0
96.1957 97.2483 90.1629 -32.4429 -81.7986 -124.624 -4.98082 -3.42193 3.67125 19.2814 -0.275848 -0.490048 2.7794 1.93418e-006 1.65929e-005 -0.101684 17.3395 71.2799 -18.786 15.2897 9.94423 2.44313 -15.0639 8.82832 -55.7967 -67.1067 -50.838 -177.16 9.40167 75.4282 -16.0423 -20.1386 11.5304 -4.6179 -6.80287 -0.215355 -3.19349 -56.1236 6.32159 -23.508 4.63459e-006 -5.90926e-006 8.12899 -23.9945 3.18959 4.00774 28.9014 1.55878 -0.166002 -5.86582 2.64885 -0.708088 -5.61056 3.87669 -90 0 0 -169.244 11.9313 -3.52359 -7.44081 -5.73675 1.80591 5.35677 -3.73664 1.00329 -90 0 0
96.189 97.2517 90.1709 -32.201 -81.8338 -124.377 -4.93885 -3.44368 3.6925 19.3099 -0.277489 -0.492156 2.7794 1.93418e-006 1.65929e-005 -0.128077 17.3061 71.3613 -18.7228 15.3816 9.84343 2.42732 -15.0642 8.82063 -55.5912 -67.1084 -50.6759 -177.156 9.33001 75.4118 -16.0512 -20.0836 11.4735 -4.596 -6.80281 -0.215301 -3.18187 -56.046 6.48803 -23.508 4.63459e-006 -5.90926e-006 8.02462 -23.1986 3.07386 4.0166 28.819 1.54852 -0.174472 -5.86688 2.64905 -0.73035 -5.57623 3.82347 -90 0 0 -169.275 11.9905 -3.51584 -7.41155 -5.73688 1.81045 5.32926 -3.72081 0.969267 -90 0 0
96.211 97.2536 90.1823 -32.1948 -81.9037 -124.366 -4.95649 -3.39038 3.67974 19.3073 -0.278706 -0.494131 2.7794 1.93418e-006 1.65929e-005 -0.151284 17.2667 71.427 -18.72 15.4745 9.7866 2.44811 -15.064 8.83067 -56.0409 -67.1067 -51.1827 -177.136 9.3408 75.3374 -16.0945 -20.0912 11.423 -4.50971 -6.8026 -0.215145 -3.29416 -56.0722 6.41601 -23.508 4.63459e-006 -5.90926e-006 8.03929 -22.4401 3.06073 3.91994 28.7035 1.56912 -0.107914 -5.86788 2.65828 -0.751658 -5.50839 3.8645 -90 0 0 -169.329 12.0282 -3.54416 -7.42698 -5.73703 1.80784 5.3244 -3.73384 1.06085 -90 0 0
96.2157 97.2549 90.1996 -31.5221 -81.9855 -123.691 -4.92015 -3.4054 3.68048 19.3415 -0.279572 -0.496226 2.7794 1.93418e-006 1.65929e-005 -0.162742 17.183 71.4131 -18.703 15.5475 9.76959 2.443 -15.0644 8.8282 -55.7618 -67.087 -50.987 -177.128 9.33901 75.3074 -16.0933 -19.9769 11.3779 -4.54639 -6.80225 -0.214901 -3.2154 -56.0151 6.45168 -23.508 4.63459e-006 -5.90926e-006 7.93927 -21.7639 3.02446 3.93134 28.6678 1.56445 -0.177192 -5.86892 2.65334 -0.715317 -5.591 3.86496 -90 0 0 -169.36 12.1658 -3.54654 -7.43765 -5.73719 1.80629 5.34499 -3.73248 0.917168 -90 0 0
96.2375 97.2542 90.2215 -30.9386 -82.0715 -123.087 -4.91702 -3.38246 3.63458 19.3666 -0.280384 -0.498538 2.7794 1.93418e-006 1.65929e-005 -0.173163 17.1468 71.4255 -18.7312 15.5409 9.75068 2.45137 -15.0646 8.83214 -55.5527 -67.1286 -50.7729 -177.119 9.33515 75.2741 -16.0071 -19.9896 11.3464 -4.5291 -6.80179 -0.214582 -3.38953 -56.0241 6.35621 -23.508 4.63459e-006 -5.90926e-006 7.94136 -21.2938 3.0774 3.86869 28.6748 1.58056 -0.107612 -5.8699 2.6517 -0.78415 -5.70839 3.79071 -90 0 0 -169.385 12.2458 -3.55181 -7.47965 -5.73736 1.80172 5.34969 -3.68051 0.916808 -90 0 0
96.2498 97.2528 90.2354 -30.0352 -82.1763 -122.168 -4.90451 -3.41957 3.59475 19.4016 -0.281136 -0.501884 2.7794 1.93418e-006 1.65929e-005 -0.189782 17.0572 71.4203 -18.6866 15.8996 9.77999 2.3875 -15.0662 8.80135 -55.974 -67.1167 -51.1954 -177.127 9.3202 75.3012 -15.9014 -20.1464 11.2956 -4.47381 -6.80123 -0.2142 -3.39466 -56.0519 6.34809 -23.508 4.63459e-006 -5.90926e-006 7.88282 -20.9366 3.16376 3.83231 28.6962 1.58578 -0.0996666 -5.87083 2.65099 -0.769556 -5.88857 3.83553 -90 0 0 -169.423 12.3466 -3.56282 -7.49482 -5.73752 1.7975 5.36258 -3.61637 0.905245 -90 0 0
96.2728 97.2545 90.2443 -29.4378 -82.2374 -121.575 -4.90373 -3.3888 3.57941 19.4377 -0.281821 -0.505534 2.7794 1.93418e-006 1.65929e-005 -0.199253 17.0325 71.4448 -18.6934 15.7221 9.78495 2.42259 -15.0659 8.81824 -55.6758 -67.0533 -50.9796 -177.129 9.3685 75.3111 -15.8953 -20.1601 11.2733 -4.44149 -6.8006 -0.213769 -3.55484 -56.0601 6.25503 -23.508 4.63459e-006 -5.90926e-006 7.85978 -20.5962 3.1838 3.82059 28.5944 1.60643 -0.101625 -5.87171 2.65107 -0.789865 -5.88228 3.81458 -90 0 0 -169.432 12.4327 -3.59398 -7.51349 -5.73767 1.79567 5.38247 -3.61284 0.912642 -90 0 0
96.3042 97.2548 90.2497 -29.0883 -82.2744 -121.24 -4.8893 -3.33338 3.56325 19.4727 -0.282432 -0.508207 2.7794 1.93418e-006 1.65929e-005 -0.232115 16.9638 71.5328 -18.624 15.6695 9.76696 2.50695 -15.0648 8.85907 -55.5404 -67.0189 -50.6634 -177.138 9.34418 75.3458 -15.8449 -20.1944 11.2731 -4.45392 -6.7999 -0.213301 -3.48474 -56.1623 6.07375 -23.508 4.63459e-006 -5.90926e-006 7.76013 -20.18 3.26052 3.80451 28.5557 1.64169 -0.107499 -5.87253 2.65177 -0.802265 -5.9166 3.78973 -90 0 0 -169.435 12.4539 -3.6406 -7.52686 -5.73781 1.79464 5.39635 -3.56892 0.968431 -90 0 0
96.3144 97.2534 90.2662 -28.8186 -82.3233 -120.949 -4.89695 -3.31366 3.5224 19.5196 -0.282962 -0.509829 2.7794 1.93418e-006 1.65929e-005 -0.245004 16.9712 71.5955 -18.6352 15.707 9.83386 2.50083 -15.0653 8.8562 -55.7095 -67.0566 -50.9413 -177.162 9.3387 75.4306 -15.8301 -20.2746 11.2809 -4.48239 -6.79917 -0.212809 -3.50266 -56.2878 6.15877 -23.508 4.63459e-006 -5.90926e-006 7.60054 -19.7242 3.29416 3.78224 28.5168 1.64115 -0.111208 -5.87328 2.65293 -0.776329 -5.91535 3.77769 -90 0 0 -169.475 12.5048 -3.62825 -7.52727 -5.73793 1.79426 5.39642 -3.56591 0.932103 -90 0 0
96.3451 97.2558 90.2576 -28.8092 -82.3096 -120.941 -4.88126 -3.27318 3.49116 19.5482 -0.283404 -0.511095 2.7794 1.93418e-006 1.65929e-005 -0.246301 17.0488 71.6621 -18.6611 15.6479 9.91329 2.52763 -15.0652 8.86907 -55.3944 -66.9271 -50.6112 -177.165 9.28106 75.4469 -15.7506 -20.4136 11.4034 -4.48547 -6.79842 -0.212306 -3.59355 -56.4171 6.10555 -23.508 4.63459e-006 -5.90926e-006 7.49592 -19.2823 3.35547 3.79539 28.4668 1.65604 -0.108618 -5.87396 2.6544 -0.781643 -5.86963 3.79386 -90 0 0 -169.462 12.4972 -3.64496 -7.50634 -5.73803 1.79438 5.38449 -3.55685 0.912402 -90 0 0
96.366 97.2555 90.2498 -28.8661 -82.2945 -120.998 -4.87662 -3.19166 3.47965 19.5587 -0.283752 -0.511872 2.7794 1.93418e-006 1.65929e-005 -0.253486 17.1004 71.7402 -18.6727 15.6509 9.98481 2.50556 -15.066 8.85837 -55.2774 -66.905 -50.5087 -177.169 9.29863 75.4572 -15.7765 -20.3877 11.4918 -4.49678 -6.79767 -0.211805 -3.69139 -56.3076 5.97056 -23.508 4.63459e-006 -5.90926e-006 7.47419 -18.9647 3.44702 3.80058 28.5335 1.67732 -0.110472 -5.87455 2.65601 -0.785981 -5.92328 3.75208 -90 0 0 -169.44 12.4776 -3.66128 -7.50771 -5.73812 1.79485 5.37124 -3.5528 0.949763 -90 0 0
96.3821 97.2571 90.2404 -29.1215 -82.2792 -121.253 -4.88747 -3.09459 3.47568 19.5373 -0.283998 -0.512029 2.7794 1.93418e-006 1.65929e-005 -0.267998 17.141 71.8346 -18.6459 15.6384 10.0173 2.46463 -15.067 8.8385 -55.3975 -66.948 -50.6805 -177.168 9.25956 75.4552 -15.7113 -20.312 11.5657 -4.50179 -6.79695 -0.21132 -3.66461 -56.2402 6.01547 -23.508 4.63459e-006 -5.90926e-006 7.54709 -18.6923 3.52726 3.83795 28.5386 1.66189 -0.193966 -5.87506 2.6576 -0.756282 -5.88057 3.71391 -90 0 0 -169.436 12.4565 -3.663 -7.49981 -5.73818 1.79552 5.35976 -3.57002 0.933391 -90 0 0
96.3786 97.2565 90.2272 -28.9324 -82.3031 -121.062 -4.91975 -3.05688 3.49829 19.5159 -0.284137 -0.511434 2.7794 1.93418e-006 1.65929e-005 -0.277762 17.1718 71.9034 -18.6384 15.6503 10.0142 2.51715 -15.0663 8.86391 -55.6216 -66.9857 -50.8194 -177.166 9.30676 75.4503 -15.7209 -20.2017 11.6467 -4.49651 -6.79626 -0.210862 -3.76137 -56.4141 5.91767 -23.508 4.63459e-006 -5.90926e-006 7.63357 -18.5148 3.52084 3.82731 28.5835 1.66501 -0.171472 -5.87547 2.65903 -0.761431 -5.96986 3.75064 -90 0 0 -169.424 12.4804 -3.65784 -7.52637 -5.73821 1.79625 5.36428 -3.54728 0.912821 -90 0 0
96.3666 97.2575 90.2086 -28.6691 -82.3309 -120.775 -4.94074 -3.06552 3.49145 19.4916 -0.28416 -0.509955 2.7794 1.93418e-006 1.65929e-005 -0.273821 17.215 71.9226 -18.6383 15.6511 10.0633 2.46421 -15.0674 8.83832 -55.2253 -66.9625 -50.5798 -177.171 9.2751 75.4678 -15.6427 -20.2823 11.7079 -4.47247 -6.79563 -0.210445 -3.62283 -56.4769 6.00648 -23.508 4.63459e-006 -5.90926e-006 7.71948 -18.4274 3.57067 3.87334 28.486 1.62774 -0.199439 -5.87578 2.66012 -0.773517 -5.90451 3.70023 -90 0 0 -169.429 12.549 -3.63033 -7.51867 -5.73821 1.79689 5.33162 -3.55755 0.878524 -90 0 0
96.3579 97.2572 90.1935 -28.2923 -82.3489 -120.401 -4.93386 -3.03304 3.52045 19.4454 -0.284062 -0.505733 2.7794 1.93418e-006 1.65929e-005 -0.275466 17.2311 71.9406 -18.6681 15.6356 10.0921 2.50057 -15.0667 8.85602 -55.495 -66.9739 -50.6766 -177.178 9.32534 75.4908 -15.6605 -20.1584 11.6627 -4.44299 -6.79508 -0.210082 -3.672 -56.344 6.04062 -23.508 4.63459e-006 -5.90926e-006 7.80958 -18.4347 3.63624 3.85187 28.5059 1.63668 -0.108844 -5.87598 2.66072 -0.819983 -5.98968 3.76434 -90 0 0 -169.41 12.5905 -3.63378 -7.5266 -5.73818 1.79729 5.33322 -3.54855 0.888911 -90 0 0
96.3483 97.2591 90.1713 -27.841 -82.3757 -119.944 -4.92861 -3.06355 3.52394 19.3966 -0.283836 -0.502459 2.7794 1.93418e-006 1.65929e-005 -0.266767 17.2991 71.9588 -18.7319 15.6971 10.1383 2.47748 -15.0668 8.84475 -55.841 -67.0303 -51.2548 -177.179 9.38726 75.497 -15.7429 -20.0946 11.6562 -4.49661 -6.79463 -0.209785 -3.94192 -56.4929 5.66525 -23.508 4.63459e-006 -5.90926e-006 7.82459 -18.3928 3.71304 3.89092 28.3895 1.62301 -0.109831 -5.87607 2.66067 -0.837416 -5.9321 3.77357 -90 0 0 -169.41 12.6137 -3.62501 -7.5078 -5.73811 1.7973 5.3283 -3.51856 0.851031 -90 0 0
